<svg width="3009" height="28" viewBox="0 0 3009 28" fill="none" xmlns="http://www.w3.org/2000/svg">
<path d="M369.677 28L361.08 28L358.931 27.4167L346.035 25.6667L335.289 23.3333L330.99 22.75H324.542L303.049 23.3333L292.303 22.1667L277.258 20.4167L260.064 20.4167L253.616 21.5833L217.078 21.5833L193.436 19.8333L186.988 20.4167L178.391 21L176.241 20.4167L156.898 21L148.301 21.5833L131.106 22.75L109.614 25.6667L94.5686 25.0833L88.1207 23.9167H73.0757L62.3293 23.3333H58.0307L47.2843 22.75L34.3886 22.1667L27.9407 20.4167L8.59714 16.9167L0 1.75L0 0L3009 0L3006.85 1.75L3004.7 3.5L3000.4 5.25L2983.21 6.41667L2974.61 5.83333L2966.01 4.08333L2961.72 3.5L2946.67 1.75L2940.22 1.16667L2933.78 0.583333L2916.58 1.75L2886.49 1.75L2884.34 1.16667L2873.6 2.33333L2865 4.08333L2862.85 4.66667L2841.36 3.5L2834.91 2.91667L2813.42 3.5L2804.82 2.91667L2802.67 2.33333L2783.33 2.91667L2772.58 4.08333H2768.28L2753.24 3.5L2746.79 4.08333L2731.74 4.08333L2708.1 5.83333L2684.46 6.41667L2650.07 7L2617.83 5.83333L2587.74 5.83333L2557.65 6.41667L2538.31 6.41667L2506.07 4.08333L2501.77 4.66667L2495.32 5.25L2484.57 4.66667L2432.99 4.66667L2392.16 4.08333H2390.01L2377.11 2.91667L2370.66 4.08333L2362.07 5.83333L2344.87 9.33333L2334.12 10.5L2314.78 11.0833L2306.18 9.91667H2301.89L2282.54 9.33333L2267.5 8.75L2263.2 8.16667V7.58333L2258.9 6.41667L2243.85 7.58333L2235.26 8.16667L2226.66 7L2215.91 7.58333L2190.12 9.33333L2175.08 9.91667L2151.44 11.6667L2125.64 12.25L2121.35 12.25L2084.81 12.8333L2074.06 14L2059.02 16.9167L2050.42 18.0833L2035.37 17.5L2028.93 16.9167L2016.03 16.3333L2000.99 15.1667L1979.49 14.5833H1968.75L1953.7 14L1947.25 13.4167H1942.95L1932.21 14L1921.46 14L1917.16 14.5833L1899.97 14L1891.37 12.25L1887.07 12.8333L1878.48 14.5833L1865.58 16.3333H1852.68L1839.79 16.9167L1835.49 16.3333L1820.45 15.75L1811.85 16.3333L1801.1 16.9167L1781.76 15.75L1762.41 16.3333L1723.73 16.3333L1676.44 15.75L1654.95 14.5833L1646.35 12.8333L1639.91 11.6667L1627.01 11.6667L1614.11 12.25L1601.22 14L1571.13 14L1566.83 15.1667L1556.08 15.75L1538.89 15.75L1525.99 14.5833H1517.4L1502.35 14L1498.05 14L1474.41 14.5833L1448.62 12.25L1435.72 11.0833L1422.83 9.91667L1414.23 9.33333L1397.04 11.6667L1388.44 11.0833L1379.84 9.91667L1369.1 9.33333L1366.95 9.91667L1358.35 12.25L1336.86 12.25L1323.96 13.4167L1298.17 11.0833L1296.02 9.91667L1289.57 7.58333L1285.27 5.83333L1276.68 4.08333L1270.23 4.08333L1263.78 3.5V2.33333L1259.48 1.16667L1255.18 1.75L1250.88 3.5L1246.59 4.08333L1242.29 2.91667L1235.84 2.33333L1227.24 4.08333L1220.79 4.08333L1205.75 1.75L1190.7 2.33333L1182.11 2.91667L1160.61 2.33333L1145.57 0.583333L1141.27 0L1119.78 0L1115.48 0.583333L1100.43 1.75L1093.99 1.75L1074.64 5.83333H1070.34L1066.05 4.66667L1057.45 4.08333L1020.91 3.5L997.269 3.5L990.821 2.33333L973.626 1.75L958.581 2.33333L952.134 2.33333L945.686 2.91667L930.641 1.16667L926.342 0.583333L922.044 0L917.745 0.583333L891.954 0L876.909 0.583333L868.311 1.16667L859.714 3.5L855.416 3.5V1.16667L840.371 1.16667L831.774 0.583333L818.878 0.583333L810.281 0L795.236 0.583333L752.25 2.91667L726.459 2.33333L713.563 2.91667L674.876 2.33333L670.577 2.33333L664.129 4.08333L655.532 6.41667L636.189 7.58333L631.89 5.83333L623.293 6.41667H621.144L612.546 7L601.8 7.58333L582.456 9.33333L571.71 11.0833L565.262 14L563.113 14.5833L556.665 15.1667L548.068 15.75L539.471 14.5833L535.172 15.1667V15.75L530.874 16.3333L522.276 15.1667L515.829 15.75L500.784 19.25L494.336 19.8333L485.739 21L477.141 23.3333L459.947 24.5H455.649L436.305 23.3333L425.559 22.75L386.871 25.6667L369.677 28Z" fill="#BAE5F2"/>
</svg>
