<svg width="1120" height="32" viewBox="0 0 1120 32" fill="none" xmlns="http://www.w3.org/2000/svg">
<path d="M1280 32H1251.14C1250.72 31.7878 1250.2 31.8939 1249.56 31.6818C1247.67 32.2122 1246.51 31.5757 1244.72 31.4696C1242.93 31.5757 1241.24 31.7878 1239.45 31.7878C1231.87 31.8939 1224.71 31.2574 1217.34 31.1513C1216.71 31.1513 1216.18 31.0453 1215.55 30.9392C1210.49 30.4088 1205.44 30.4088 1200.59 30.9392C1198.8 31.1513 1196.91 31.3635 1195.22 31.2574C1191.96 31.0453 1188.59 31.2574 1185.32 31.2574C1180.69 31.2574 1176.27 30.9392 1171.74 31.0453C1166.68 31.1513 1162.26 30.1966 1157.21 30.5148C1156.99 30.5148 1156.47 30.4088 1156.26 30.4088C1154.68 30.0905 1152.99 30.0905 1150.99 30.1966C1149.83 30.3027 1148.68 30.3027 1147.31 30.1966C1144.04 30.1966 1144.04 30.1966 1140.57 30.6209C1138.46 30.5149 1136.46 30.1966 1134.56 30.1966C1131.83 30.1966 1131.51 29.5601 1129.72 29.3479H1129.19C1126.67 29.454 1125.09 29.1358 1123.4 28.7115C1121.61 28.2871 1119.5 28.075 1116.98 28.3932C1116.24 28.4993 1115.08 28.3932 1114.03 28.3932C1110.13 28.075 1106.13 27.8628 1102.23 27.5445C1095.81 26.9081 1089.7 26.3776 1083.28 25.7412C1080.33 25.4229 1077.69 25.1047 1076.12 24.5742C1073.59 24.6803 1071.27 24.7864 1068.95 24.9986C1066.01 24.6803 1063.16 24.256 1061.58 23.5134C1061.16 23.3013 1059.69 23.0891 1059.05 22.983C1054.84 23.0891 1050.95 23.3013 1047.05 23.4073C1046.52 23.3013 1045.89 23.0891 1045.15 22.983C1043.78 22.8769 1042.42 22.5587 1041.26 22.6648C1037.36 22.8769 1033.88 22.6648 1030.2 22.5587C1026.3 22.4526 1023.25 22.1344 1020.09 21.604C1017.98 21.1796 1015.45 20.7553 1012.19 21.1796C1010.4 21.3918 1008.08 21.2857 1006.19 21.3918C1003.87 21.4979 1001.55 21.3918 999.553 21.1796C997.657 20.8614 995.867 20.7553 993.55 20.8614C990.812 20.9675 988.495 20.8614 986.389 20.5431C984.283 20.331 982.176 20.1188 979.965 20.0127C978.069 19.9066 975.542 19.9066 974.383 19.3762C973.014 18.8458 970.908 18.7397 969.012 18.7397C965.958 18.7397 963.431 18.5276 961.114 18.1032C959.218 17.785 957.217 17.5728 954.69 17.6789C953.321 17.6789 951.636 17.6789 950.583 17.4667C948.476 17.0424 946.159 17.0424 943.421 16.9363C941.526 16.0877 938.577 15.6634 934.364 15.8755C930.889 15.4512 926.571 15.6634 923.728 14.9208C922.78 14.6025 920.674 14.6025 919.094 14.9208C916.777 15.239 914.25 15.239 911.933 14.9208C909.195 14.4964 906.562 14.6025 903.824 14.8147C898.032 15.3451 892.239 15.7694 885.815 15.8755C884.868 15.8755 883.92 15.9816 882.867 16.1938C879.918 16.6181 877.285 16.8303 873.915 16.6181C871.809 16.512 869.492 16.6181 866.964 16.512C864.437 16.9363 862.12 17.4667 858.434 17.4667C857.697 17.4667 856.854 17.5728 856.328 17.6789C852.853 18.3154 849.167 18.4215 845.27 18.1032C837.898 17.6789 830.316 17.3607 822.839 17.1485C821.469 17.1485 820.1 16.9363 818.731 16.8303C814.519 17.6789 809.674 17.6789 804.619 17.4667C801.144 17.3607 797.669 16.9363 793.772 16.9363C792.193 16.9363 790.086 16.7242 788.928 16.2998C788.296 16.0877 787.559 15.9816 786.19 16.0877H783.873C778.291 15.239 771.235 14.9208 767.233 13.5417C760.809 13.3295 754.596 13.1174 748.698 12.9052C743.643 12.6931 738.588 12.587 733.639 13.1174C732.48 13.2235 730.69 13.2235 729.426 13.1174C728.057 13.0113 727.109 13.0113 725.951 13.1174C723.002 13.4356 720.369 13.1174 718.053 12.6931C716.473 12.9052 715.314 13.1174 713.945 13.3295C712.366 13.4356 710.891 13.6478 709.312 13.6478C704.888 13.5417 700.255 13.5417 695.726 13.6478C694.147 13.6478 692.778 13.5417 691.83 13.2235C689.723 12.587 686.775 12.587 683.931 12.4809C679.719 12.3748 675.401 12.2687 671.294 12.0566C668.556 11.5261 667.081 10.7836 663.185 10.5714C660.236 10.9957 657.182 10.8897 653.917 10.6775C652.022 10.5714 650.442 10.3592 648.862 10.041C647.493 9.82883 646.124 9.40451 644.65 9.40451C641.701 9.29842 639.068 9.08626 637.488 8.44977C637.278 8.76801 636.541 8.66193 635.909 8.66193C632.223 8.34368 628.116 8.44977 624.535 8.02544C623.587 7.81327 621.797 8.13152 620.428 8.13152C619.691 8.13152 618.848 8.13152 618.111 8.02544C616.531 7.91936 615.057 7.81327 613.267 7.70719C608.633 7.49503 604.315 6.96462 600.524 6.22204C599.576 6.00988 598.418 5.79771 597.259 5.79771C595.153 5.79771 593.363 5.47947 591.678 5.16122C588.939 4.73689 586.307 4.31256 583.147 3.99432C579.04 3.56999 575.249 3.03958 570.194 3.25174C566.929 3.35782 563.454 2.61525 562.822 1.87267C562.401 1.1301 560.716 0.705771 558.925 0.17536C556.398 0.17536 554.081 0.0692781 551.975 0.0692781C548.078 0.0692781 544.182 -0.142886 540.39 0.17536C536.494 0.493607 532.492 0.705771 528.174 0.281442C526.384 0.17536 524.488 0.281442 522.382 0.281442C520.802 1.02402 518.696 1.44835 515.431 1.44835C512.482 1.44835 510.798 1.87267 509.007 2.297C508.059 2.50917 507.217 2.72133 506.269 2.9335C502.794 2.61525 501.846 2.61525 497.212 2.9335C496.475 2.9335 495.633 3.03958 494.895 3.03958C494.158 3.03958 493.316 3.14566 492.789 3.25174C490.472 3.67607 488.577 4.1004 485.417 4.20648C484.785 4.20648 484.048 4.41865 483.627 4.63081C482.679 4.94906 481.837 5.2673 480.889 5.47947C477.203 5.2673 474.149 5.47947 470.673 5.69163C465.408 5.9038 460.037 5.9038 454.561 6.00988C449.295 6.00988 443.924 6.00988 438.869 5.58555C438.448 5.58555 438.132 5.47947 437.711 5.47947C433.814 5.37338 429.918 5.05514 426.337 5.69163C425.6 5.79771 424.441 5.79771 423.388 5.9038C419.702 6.22204 416.227 6.32812 412.752 5.79771C408.539 5.16122 403.8 5.69163 399.377 5.79771C398.64 5.79771 397.797 6.00988 397.481 6.11596C396.112 6.64637 394.006 6.64637 391.9 6.64637H388.424C385.897 7.81327 384.738 8.13152 379.683 8.98018C378.104 9.19234 376.419 9.4045 374.628 9.61667C372.101 9.93492 369.363 9.93492 366.73 9.82883C363.465 9.72275 360.095 9.61667 357.041 9.40451C355.672 9.40451 354.093 9.29842 352.934 9.08626C350.196 8.55585 347.879 8.44977 345.036 8.98018C343.772 9.29842 341.455 9.29842 341.244 9.61667C340.297 10.2532 337.98 10.3592 336.189 10.5714C332.503 11.2079 328.607 11.5261 326.079 12.4809C324.71 13.0113 322.604 13.3295 320.708 13.6478C318.602 14.0721 316.496 14.4964 314.074 14.6025C310.598 14.8147 307.65 15.239 305.965 15.8755C304.596 15.8755 303.437 15.8755 302.489 15.9816C301.331 16.0877 300.383 16.2998 299.225 16.4059C298.277 16.512 297.118 16.4059 296.276 16.4059C295.328 16.512 294.696 16.9363 293.748 17.0424C291.958 17.2546 290.063 17.4667 288.167 17.6789C283.744 17.9972 279.11 17.9972 275.003 18.4215C269.948 18.9519 265.103 19.1641 259.943 18.8458H258.048C252.677 18.5276 246.99 18.6336 241.935 17.9972C238.67 17.4667 234.773 17.3607 230.561 17.4667C227.086 17.5728 223.61 17.3607 220.346 16.9363C218.555 16.7242 216.66 16.4059 214.764 16.2998C212.447 16.1938 210.552 16.0877 208.761 15.5573C208.129 15.3451 206.866 15.239 206.023 15.3451C202.548 15.4512 199.599 15.1329 196.545 14.8147C193.596 14.6025 191.174 14.2843 189.594 13.7539C186.856 12.7991 182.854 12.6931 178.326 12.9052C175.588 13.1174 173.06 13.4356 171.902 13.966C171.165 14.3904 169.585 14.6025 168.216 14.8147C167.058 15.0269 165.267 15.1329 164.53 15.3451C162.95 15.7694 161.055 15.8755 159.264 16.0877C154.841 16.7242 149.786 16.8303 144.942 16.9363C137.359 17.1485 129.672 17.4667 122.3 16.6181C120.509 16.4059 118.614 16.4059 116.718 16.7242C116.718 17.4667 114.823 17.785 112.611 18.2093C110.505 18.6336 108.504 19.058 106.187 19.2701C102.29 19.9066 99.0256 20.6492 94.6025 21.1796C89.0209 21.8161 83.3341 22.3465 77.7525 22.983C73.6453 23.4073 69.8541 23.7256 66.1681 24.256C64.7991 24.4682 63.1141 24.5743 61.5344 24.6803C58.7962 24.8925 55.5316 24.8925 53.2147 25.3168C49.7394 25.9533 46.2641 26.0594 42.1569 26.0594C39.6294 26.0594 36.8913 26.3776 34.3637 26.4837C31.0991 27.3324 26.4653 27.4385 22.5687 28.075C19.8306 28.4993 17.1978 28.4993 14.2491 28.2871C10.3525 28.075 6.45594 27.9689 2.66469 28.2871C1.71687 28.3932 0.558434 28.3932 -0.389374 28.2871C-5.44438 27.9689 -9.8675 28.181 -13.5534 29.1358C-13.9747 29.2419 -14.5012 29.2419 -15.1331 29.3479C-19.3456 29.9844 -24.6112 30.0905 -28.7184 30.727C-31.2459 30.6209 -33.1416 30.727 -34.3 31.3635C-34.5106 31.4696 -35.8797 31.4696 -36.6169 31.5757C-37.7753 31.5757 -39.355 31.5757 -40.3028 31.6818L-47.8853 32H-68" fill="white"/>
</svg>
