<svg width="132" height="35" viewBox="0 0 132 35" fill="none" xmlns="http://www.w3.org/2000/svg">
<path d="M16.664 33.904C13.528 33.904 10.712 33.28 8.216 32.032C5.752 30.752 3.8 28.864 2.36 26.368C0.92 23.84 0.2 20.752 0.2 17.104C0.2 14.16 0.872 11.408 2.216 8.848C3.56 6.288 5.416 4.24 7.784 2.704C10.152 1.168 12.808 0.399998 15.752 0.399998C18.536 0.399998 21.016 0.927998 23.192 1.984C25.368 3.008 27.048 4.416 28.232 6.208C29.448 8 30.056 10 30.056 12.208C30.056 13.616 29.64 14.832 28.808 15.856C28.008 16.88 26.856 17.392 25.352 17.392C24.232 17.392 23.368 17.2 22.76 16.816C22.152 16.432 21.512 15.84 20.84 15.04C20.168 14.24 19.512 13.648 18.872 13.264C18.264 12.848 17.368 12.64 16.184 12.64C14.68 12.64 13.384 13.216 12.296 14.368C11.24 15.488 10.712 16.864 10.712 18.496C10.712 20.256 11.16 21.744 12.056 22.96C12.984 24.144 14.232 24.736 15.8 24.736C17.016 24.736 17.976 24.56 18.68 24.208C19.416 23.856 20.184 23.344 20.984 22.672C21.656 22.096 22.264 21.664 22.808 21.376C23.384 21.088 24.088 20.944 24.92 20.944C26.2 20.944 27.208 21.344 27.944 22.144C28.68 22.912 29.048 23.92 29.048 25.168C29.048 26.64 28.504 28.048 27.416 29.392C26.36 30.736 24.888 31.824 23 32.656C21.112 33.488 19 33.904 16.664 33.904ZM48.4565 34C44.8725 34 41.8005 33.2 39.2405 31.6C36.6805 29.968 34.7445 27.808 33.4325 25.12C32.1525 22.4 31.5125 19.44 31.5125 16.24C31.5125 11.824 32.0245 8.08 33.0485 5.008C34.0725 1.936 36.0725 0.399998 39.0485 0.399998C41.3845 0.399998 43.0645 1.088 44.0885 2.464C45.1125 3.84 45.6245 5.536 45.6245 7.552C45.6245 8.896 45.4965 10.464 45.2405 12.256C44.9845 13.984 44.8565 15.44 44.8565 16.624C44.8565 18.192 45.1285 19.536 45.6725 20.656C46.2165 21.776 47.1445 22.336 48.4565 22.336C49.8005 22.336 50.7285 21.776 51.2405 20.656C51.7845 19.536 52.0565 18.192 52.0565 16.624C52.0565 15.44 51.9285 13.984 51.6725 12.256C51.4165 10.464 51.2885 8.896 51.2885 7.552C51.2885 5.536 51.8005 3.84 52.8245 2.464C53.8485 1.088 55.5285 0.399998 57.8645 0.399998C60.8405 0.399998 62.8405 1.936 63.8645 5.008C64.8885 8.08 65.4005 11.824 65.4005 16.24C65.4005 19.44 64.7445 22.4 63.4325 25.12C62.1525 27.808 60.2325 29.968 57.6725 31.6C55.1125 33.2 52.0405 34 48.4565 34ZM96.9778 13.984C96.9778 16.32 96.6258 18.384 95.9218 20.176C95.2498 21.968 94.2898 23.472 93.0417 24.688C94.0978 26.32 94.6258 27.904 94.6258 29.44C94.6258 30.752 94.1138 31.84 93.0898 32.704C92.0978 33.568 90.9618 34 89.6818 34C88.9458 34 88.2738 33.888 87.6658 33.664C87.0578 33.44 86.4018 33.056 85.6978 32.512C85.0898 32.032 84.5138 31.376 83.9698 30.544C83.4258 29.712 82.9938 28.848 82.6738 27.952C81.6178 27.824 80.5618 27.552 79.5058 27.136C79.6978 28.16 79.7938 28.944 79.7938 29.488C79.7938 32.528 78.2098 34.048 75.0418 34.048C72.3858 34.048 70.5138 32.496 69.4258 29.392C68.3378 26.288 67.7938 22.496 67.7938 18.016C67.7938 14.976 68.3378 12.128 69.4258 9.472C70.5458 6.784 72.2418 4.624 74.5138 2.992C76.7858 1.328 79.5538 0.495999 82.8178 0.495999C85.4418 0.495999 87.8258 1.056 89.9698 2.176C92.1138 3.264 93.8098 4.832 95.0578 6.88C96.3378 8.928 96.9778 11.296 96.9778 13.984ZM79.0258 16.24C79.0258 17.328 79.4578 18.288 80.3218 19.12C81.1858 19.92 82.1778 20.32 83.2978 20.32C84.4498 20.32 85.4418 19.92 86.2738 19.12C87.1378 18.288 87.5698 17.328 87.5698 16.24C87.5698 15.12 87.1378 14.16 86.2738 13.36C85.4418 12.528 84.4498 12.112 83.2978 12.112C82.1778 12.112 81.1858 12.528 80.3218 13.36C79.4578 14.192 79.0258 15.152 79.0258 16.24ZM114.818 34.048C111.906 34.08 109.202 33.36 106.706 31.888C104.242 30.416 102.258 28.4 100.754 25.84C99.282 23.248 98.514 20.384 98.45 17.248C98.418 14.24 99.122 11.456 100.562 8.896C102.002 6.336 103.986 4.304 106.514 2.8C109.042 1.264 111.81 0.495999 114.818 0.495999C117.762 0.463998 120.482 1.2 122.978 2.704C125.506 4.208 127.506 6.272 128.978 8.896C130.45 11.52 131.186 14.416 131.186 17.584C131.186 20.56 130.45 23.296 128.978 25.792C127.506 28.288 125.506 30.272 122.978 31.744C120.482 33.216 117.762 33.984 114.818 34.048ZM114.962 24.688C116.434 24.688 117.682 24.16 118.706 23.104C119.762 22.048 120.274 20.672 120.242 18.976C120.242 17.248 119.73 15.856 118.706 14.8C117.682 13.744 116.434 13.216 114.962 13.216C113.49 13.216 112.242 13.744 111.218 14.8C110.194 15.856 109.682 17.248 109.682 18.976C109.682 20.672 110.194 22.048 111.218 23.104C112.242 24.16 113.49 24.688 114.962 24.688Z" fill="white"/>
</svg>
