<svg width="1023" height="4" viewBox="0 0 1023 4" fill="none" xmlns="http://www.w3.org/2000/svg">
<circle cx="1.5" cy="2.20825" r="1.5" transform="rotate(-90 1.5 2.20825)" fill="#DBE3E6"/>
<circle cx="37.5" cy="2.20825" r="1.5" transform="rotate(-90 37.5 2.20825)" fill="#DBE3E6"/>
<circle cx="73.5" cy="2.20825" r="1.5" transform="rotate(-90 73.5 2.20825)" fill="#DBE3E6"/>
<circle cx="109.5" cy="2.20825" r="1.5" transform="rotate(-90 109.5 2.20825)" fill="#DBE3E6"/>
<circle cx="145.5" cy="2.20825" r="1.5" transform="rotate(-90 145.5 2.20825)" fill="#DBE3E6"/>
<circle cx="181.5" cy="2.20825" r="1.5" transform="rotate(-90 181.5 2.20825)" fill="#DBE3E6"/>
<circle cx="217.5" cy="2.20825" r="1.5" transform="rotate(-90 217.5 2.20825)" fill="#DBE3E6"/>
<circle cx="253.5" cy="2.20825" r="1.5" transform="rotate(-90 253.5 2.20825)" fill="#DBE3E6"/>
<circle cx="289.5" cy="2.20825" r="1.5" transform="rotate(-90 289.5 2.20825)" fill="#DBE3E6"/>
<circle cx="325.5" cy="2.20825" r="1.5" transform="rotate(-90 325.5 2.20825)" fill="#DBE3E6"/>
<circle cx="361.5" cy="2.20825" r="1.5" transform="rotate(-90 361.5 2.20825)" fill="#DBE3E6"/>
<circle cx="397.5" cy="2.20825" r="1.5" transform="rotate(-90 397.5 2.20825)" fill="#DBE3E6"/>
<circle cx="433.5" cy="2.20825" r="1.5" transform="rotate(-90 433.5 2.20825)" fill="#DBE3E6"/>
<circle cx="469.5" cy="2.20825" r="1.5" transform="rotate(-90 469.5 2.20825)" fill="#DBE3E6"/>
<circle cx="505.5" cy="2.20825" r="1.5" transform="rotate(-90 505.5 2.20825)" fill="#DBE3E6"/>
<circle cx="541.5" cy="2.20825" r="1.5" transform="rotate(-90 541.5 2.20825)" fill="#DBE3E6"/>
<circle cx="577.5" cy="2.20825" r="1.5" transform="rotate(-90 577.5 2.20825)" fill="#DBE3E6"/>
<circle cx="613.5" cy="2.20825" r="1.5" transform="rotate(-90 613.5 2.20825)" fill="#DBE3E6"/>
<circle cx="649.5" cy="2.20825" r="1.5" transform="rotate(-90 649.5 2.20825)" fill="#DBE3E6"/>
<circle cx="685.5" cy="2.20825" r="1.5" transform="rotate(-90 685.5 2.20825)" fill="#DBE3E6"/>
<circle cx="721.5" cy="2.20825" r="1.5" transform="rotate(-90 721.5 2.20825)" fill="#DBE3E6"/>
<circle cx="757.5" cy="2.20825" r="1.5" transform="rotate(-90 757.5 2.20825)" fill="#DBE3E6"/>
<circle cx="793.5" cy="2.20825" r="1.5" transform="rotate(-90 793.5 2.20825)" fill="#DBE3E6"/>
<circle cx="829.5" cy="2.20825" r="1.5" transform="rotate(-90 829.5 2.20825)" fill="#DBE3E6"/>
<circle cx="865.5" cy="2.20825" r="1.5" transform="rotate(-90 865.5 2.20825)" fill="#DBE3E6"/>
<circle cx="901.5" cy="2.20825" r="1.5" transform="rotate(-90 901.5 2.20825)" fill="#DBE3E6"/>
<circle cx="937.5" cy="2.20825" r="1.5" transform="rotate(-90 937.5 2.20825)" fill="#DBE3E6"/>
<circle cx="973.5" cy="2.20825" r="1.5" transform="rotate(-90 973.5 2.20825)" fill="#DBE3E6"/>
<circle cx="1009.5" cy="2.20825" r="1.5" transform="rotate(-90 1009.5 2.20825)" fill="#DBE3E6"/>
<circle cx="7.5" cy="2.20825" r="1.5" transform="rotate(-90 7.5 2.20825)" fill="#DBE3E6"/>
<circle cx="43.5" cy="2.20825" r="1.5" transform="rotate(-90 43.5 2.20825)" fill="#DBE3E6"/>
<circle cx="79.5" cy="2.20825" r="1.5" transform="rotate(-90 79.5 2.20825)" fill="#DBE3E6"/>
<circle cx="115.5" cy="2.20825" r="1.5" transform="rotate(-90 115.5 2.20825)" fill="#DBE3E6"/>
<circle cx="151.5" cy="2.20825" r="1.5" transform="rotate(-90 151.5 2.20825)" fill="#DBE3E6"/>
<circle cx="187.5" cy="2.20825" r="1.5" transform="rotate(-90 187.5 2.20825)" fill="#DBE3E6"/>
<circle cx="223.5" cy="2.20825" r="1.5" transform="rotate(-90 223.5 2.20825)" fill="#DBE3E6"/>
<circle cx="259.5" cy="2.20825" r="1.5" transform="rotate(-90 259.5 2.20825)" fill="#DBE3E6"/>
<circle cx="295.5" cy="2.20825" r="1.5" transform="rotate(-90 295.5 2.20825)" fill="#DBE3E6"/>
<circle cx="331.5" cy="2.20825" r="1.5" transform="rotate(-90 331.5 2.20825)" fill="#DBE3E6"/>
<circle cx="367.5" cy="2.20825" r="1.5" transform="rotate(-90 367.5 2.20825)" fill="#DBE3E6"/>
<circle cx="403.5" cy="2.20825" r="1.5" transform="rotate(-90 403.5 2.20825)" fill="#DBE3E6"/>
<circle cx="439.5" cy="2.20825" r="1.5" transform="rotate(-90 439.5 2.20825)" fill="#DBE3E6"/>
<circle cx="475.5" cy="2.20825" r="1.5" transform="rotate(-90 475.5 2.20825)" fill="#DBE3E6"/>
<circle cx="511.5" cy="2.20825" r="1.5" transform="rotate(-90 511.5 2.20825)" fill="#DBE3E6"/>
<circle cx="547.5" cy="2.20825" r="1.5" transform="rotate(-90 547.5 2.20825)" fill="#DBE3E6"/>
<circle cx="583.5" cy="2.20825" r="1.5" transform="rotate(-90 583.5 2.20825)" fill="#DBE3E6"/>
<circle cx="619.5" cy="2.20825" r="1.5" transform="rotate(-90 619.5 2.20825)" fill="#DBE3E6"/>
<circle cx="655.5" cy="2.20825" r="1.5" transform="rotate(-90 655.5 2.20825)" fill="#DBE3E6"/>
<circle cx="691.5" cy="2.20825" r="1.5" transform="rotate(-90 691.5 2.20825)" fill="#DBE3E6"/>
<circle cx="727.5" cy="2.20825" r="1.5" transform="rotate(-90 727.5 2.20825)" fill="#DBE3E6"/>
<circle cx="763.5" cy="2.20825" r="1.5" transform="rotate(-90 763.5 2.20825)" fill="#DBE3E6"/>
<circle cx="799.5" cy="2.20825" r="1.5" transform="rotate(-90 799.5 2.20825)" fill="#DBE3E6"/>
<circle cx="835.5" cy="2.20825" r="1.5" transform="rotate(-90 835.5 2.20825)" fill="#DBE3E6"/>
<circle cx="871.5" cy="2.20825" r="1.5" transform="rotate(-90 871.5 2.20825)" fill="#DBE3E6"/>
<circle cx="907.5" cy="2.20825" r="1.5" transform="rotate(-90 907.5 2.20825)" fill="#DBE3E6"/>
<circle cx="943.5" cy="2.20825" r="1.5" transform="rotate(-90 943.5 2.20825)" fill="#DBE3E6"/>
<circle cx="979.5" cy="2.20825" r="1.5" transform="rotate(-90 979.5 2.20825)" fill="#DBE3E6"/>
<circle cx="1015.5" cy="2.20825" r="1.5" transform="rotate(-90 1015.5 2.20825)" fill="#DBE3E6"/>
<circle cx="13.5" cy="2.20825" r="1.5" transform="rotate(-90 13.5 2.20825)" fill="#DBE3E6"/>
<circle cx="49.5" cy="2.20825" r="1.5" transform="rotate(-90 49.5 2.20825)" fill="#DBE3E6"/>
<circle cx="85.5" cy="2.20825" r="1.5" transform="rotate(-90 85.5 2.20825)" fill="#DBE3E6"/>
<circle cx="121.5" cy="2.20825" r="1.5" transform="rotate(-90 121.5 2.20825)" fill="#DBE3E6"/>
<circle cx="157.5" cy="2.20825" r="1.5" transform="rotate(-90 157.5 2.20825)" fill="#DBE3E6"/>
<circle cx="193.5" cy="2.20825" r="1.5" transform="rotate(-90 193.5 2.20825)" fill="#DBE3E6"/>
<circle cx="229.5" cy="2.20825" r="1.5" transform="rotate(-90 229.5 2.20825)" fill="#DBE3E6"/>
<circle cx="265.5" cy="2.20825" r="1.5" transform="rotate(-90 265.5 2.20825)" fill="#DBE3E6"/>
<circle cx="301.5" cy="2.20825" r="1.5" transform="rotate(-90 301.5 2.20825)" fill="#DBE3E6"/>
<circle cx="337.5" cy="2.20825" r="1.5" transform="rotate(-90 337.5 2.20825)" fill="#DBE3E6"/>
<circle cx="373.5" cy="2.20825" r="1.5" transform="rotate(-90 373.5 2.20825)" fill="#DBE3E6"/>
<circle cx="409.5" cy="2.20825" r="1.5" transform="rotate(-90 409.5 2.20825)" fill="#DBE3E6"/>
<circle cx="445.5" cy="2.20825" r="1.5" transform="rotate(-90 445.5 2.20825)" fill="#DBE3E6"/>
<circle cx="481.5" cy="2.20825" r="1.5" transform="rotate(-90 481.5 2.20825)" fill="#DBE3E6"/>
<circle cx="517.5" cy="2.20825" r="1.5" transform="rotate(-90 517.5 2.20825)" fill="#DBE3E6"/>
<circle cx="553.5" cy="2.20825" r="1.5" transform="rotate(-90 553.5 2.20825)" fill="#DBE3E6"/>
<circle cx="589.5" cy="2.20825" r="1.5" transform="rotate(-90 589.5 2.20825)" fill="#DBE3E6"/>
<circle cx="625.5" cy="2.20825" r="1.5" transform="rotate(-90 625.5 2.20825)" fill="#DBE3E6"/>
<circle cx="661.5" cy="2.20825" r="1.5" transform="rotate(-90 661.5 2.20825)" fill="#DBE3E6"/>
<circle cx="697.5" cy="2.20825" r="1.5" transform="rotate(-90 697.5 2.20825)" fill="#DBE3E6"/>
<circle cx="733.5" cy="2.20825" r="1.5" transform="rotate(-90 733.5 2.20825)" fill="#DBE3E6"/>
<circle cx="769.5" cy="2.20825" r="1.5" transform="rotate(-90 769.5 2.20825)" fill="#DBE3E6"/>
<circle cx="805.5" cy="2.20825" r="1.5" transform="rotate(-90 805.5 2.20825)" fill="#DBE3E6"/>
<circle cx="841.5" cy="2.20825" r="1.5" transform="rotate(-90 841.5 2.20825)" fill="#DBE3E6"/>
<circle cx="877.5" cy="2.20825" r="1.5" transform="rotate(-90 877.5 2.20825)" fill="#DBE3E6"/>
<circle cx="913.5" cy="2.20825" r="1.5" transform="rotate(-90 913.5 2.20825)" fill="#DBE3E6"/>
<circle cx="949.5" cy="2.20825" r="1.5" transform="rotate(-90 949.5 2.20825)" fill="#DBE3E6"/>
<circle cx="985.5" cy="2.20825" r="1.5" transform="rotate(-90 985.5 2.20825)" fill="#DBE3E6"/>
<circle cx="1021.5" cy="2.20825" r="1.5" transform="rotate(-90 1021.5 2.20825)" fill="#DBE3E6"/>
<circle cx="19.5" cy="2.20825" r="1.5" transform="rotate(-90 19.5 2.20825)" fill="#DBE3E6"/>
<circle cx="55.5" cy="2.20825" r="1.5" transform="rotate(-90 55.5 2.20825)" fill="#DBE3E6"/>
<circle cx="91.5" cy="2.20825" r="1.5" transform="rotate(-90 91.5 2.20825)" fill="#DBE3E6"/>
<circle cx="127.5" cy="2.20825" r="1.5" transform="rotate(-90 127.5 2.20825)" fill="#DBE3E6"/>
<circle cx="163.5" cy="2.20825" r="1.5" transform="rotate(-90 163.5 2.20825)" fill="#DBE3E6"/>
<circle cx="199.5" cy="2.20825" r="1.5" transform="rotate(-90 199.5 2.20825)" fill="#DBE3E6"/>
<circle cx="235.5" cy="2.20825" r="1.5" transform="rotate(-90 235.5 2.20825)" fill="#DBE3E6"/>
<circle cx="271.5" cy="2.20825" r="1.5" transform="rotate(-90 271.5 2.20825)" fill="#DBE3E6"/>
<circle cx="307.5" cy="2.20825" r="1.5" transform="rotate(-90 307.5 2.20825)" fill="#DBE3E6"/>
<circle cx="343.5" cy="2.20825" r="1.5" transform="rotate(-90 343.5 2.20825)" fill="#DBE3E6"/>
<circle cx="379.5" cy="2.20825" r="1.5" transform="rotate(-90 379.5 2.20825)" fill="#DBE3E6"/>
<circle cx="415.5" cy="2.20825" r="1.5" transform="rotate(-90 415.5 2.20825)" fill="#DBE3E6"/>
<circle cx="451.5" cy="2.20825" r="1.5" transform="rotate(-90 451.5 2.20825)" fill="#DBE3E6"/>
<circle cx="487.5" cy="2.20825" r="1.5" transform="rotate(-90 487.5 2.20825)" fill="#DBE3E6"/>
<circle cx="523.5" cy="2.20825" r="1.5" transform="rotate(-90 523.5 2.20825)" fill="#DBE3E6"/>
<circle cx="559.5" cy="2.20825" r="1.5" transform="rotate(-90 559.5 2.20825)" fill="#DBE3E6"/>
<circle cx="595.5" cy="2.20825" r="1.5" transform="rotate(-90 595.5 2.20825)" fill="#DBE3E6"/>
<circle cx="631.5" cy="2.20825" r="1.5" transform="rotate(-90 631.5 2.20825)" fill="#DBE3E6"/>
<circle cx="667.5" cy="2.20825" r="1.5" transform="rotate(-90 667.5 2.20825)" fill="#DBE3E6"/>
<circle cx="703.5" cy="2.20825" r="1.5" transform="rotate(-90 703.5 2.20825)" fill="#DBE3E6"/>
<circle cx="739.5" cy="2.20825" r="1.5" transform="rotate(-90 739.5 2.20825)" fill="#DBE3E6"/>
<circle cx="775.5" cy="2.20825" r="1.5" transform="rotate(-90 775.5 2.20825)" fill="#DBE3E6"/>
<circle cx="811.5" cy="2.20825" r="1.5" transform="rotate(-90 811.5 2.20825)" fill="#DBE3E6"/>
<circle cx="847.5" cy="2.20825" r="1.5" transform="rotate(-90 847.5 2.20825)" fill="#DBE3E6"/>
<circle cx="883.5" cy="2.20825" r="1.5" transform="rotate(-90 883.5 2.20825)" fill="#DBE3E6"/>
<circle cx="919.5" cy="2.20825" r="1.5" transform="rotate(-90 919.5 2.20825)" fill="#DBE3E6"/>
<circle cx="955.5" cy="2.20825" r="1.5" transform="rotate(-90 955.5 2.20825)" fill="#DBE3E6"/>
<circle cx="991.5" cy="2.20825" r="1.5" transform="rotate(-90 991.5 2.20825)" fill="#DBE3E6"/>
<circle cx="25.5" cy="2.20825" r="1.5" transform="rotate(-90 25.5 2.20825)" fill="#DBE3E6"/>
<circle cx="61.5" cy="2.20825" r="1.5" transform="rotate(-90 61.5 2.20825)" fill="#DBE3E6"/>
<circle cx="97.5" cy="2.20825" r="1.5" transform="rotate(-90 97.5 2.20825)" fill="#DBE3E6"/>
<circle cx="133.5" cy="2.20825" r="1.5" transform="rotate(-90 133.5 2.20825)" fill="#DBE3E6"/>
<circle cx="169.5" cy="2.20825" r="1.5" transform="rotate(-90 169.5 2.20825)" fill="#DBE3E6"/>
<circle cx="205.5" cy="2.20825" r="1.5" transform="rotate(-90 205.5 2.20825)" fill="#DBE3E6"/>
<circle cx="241.5" cy="2.20825" r="1.5" transform="rotate(-90 241.5 2.20825)" fill="#DBE3E6"/>
<circle cx="277.5" cy="2.20825" r="1.5" transform="rotate(-90 277.5 2.20825)" fill="#DBE3E6"/>
<circle cx="313.5" cy="2.20825" r="1.5" transform="rotate(-90 313.5 2.20825)" fill="#DBE3E6"/>
<circle cx="349.5" cy="2.20825" r="1.5" transform="rotate(-90 349.5 2.20825)" fill="#DBE3E6"/>
<circle cx="385.5" cy="2.20825" r="1.5" transform="rotate(-90 385.5 2.20825)" fill="#DBE3E6"/>
<circle cx="421.5" cy="2.20825" r="1.5" transform="rotate(-90 421.5 2.20825)" fill="#DBE3E6"/>
<circle cx="457.5" cy="2.20825" r="1.5" transform="rotate(-90 457.5 2.20825)" fill="#DBE3E6"/>
<circle cx="493.5" cy="2.20825" r="1.5" transform="rotate(-90 493.5 2.20825)" fill="#DBE3E6"/>
<circle cx="529.5" cy="2.20825" r="1.5" transform="rotate(-90 529.5 2.20825)" fill="#DBE3E6"/>
<circle cx="565.5" cy="2.20825" r="1.5" transform="rotate(-90 565.5 2.20825)" fill="#DBE3E6"/>
<circle cx="601.5" cy="2.20825" r="1.5" transform="rotate(-90 601.5 2.20825)" fill="#DBE3E6"/>
<circle cx="637.5" cy="2.20825" r="1.5" transform="rotate(-90 637.5 2.20825)" fill="#DBE3E6"/>
<circle cx="673.5" cy="2.20825" r="1.5" transform="rotate(-90 673.5 2.20825)" fill="#DBE3E6"/>
<circle cx="709.5" cy="2.20825" r="1.5" transform="rotate(-90 709.5 2.20825)" fill="#DBE3E6"/>
<circle cx="745.5" cy="2.20825" r="1.5" transform="rotate(-90 745.5 2.20825)" fill="#DBE3E6"/>
<circle cx="781.5" cy="2.20825" r="1.5" transform="rotate(-90 781.5 2.20825)" fill="#DBE3E6"/>
<circle cx="817.5" cy="2.20825" r="1.5" transform="rotate(-90 817.5 2.20825)" fill="#DBE3E6"/>
<circle cx="853.5" cy="2.20825" r="1.5" transform="rotate(-90 853.5 2.20825)" fill="#DBE3E6"/>
<circle cx="889.5" cy="2.20825" r="1.5" transform="rotate(-90 889.5 2.20825)" fill="#DBE3E6"/>
<circle cx="925.5" cy="2.20825" r="1.5" transform="rotate(-90 925.5 2.20825)" fill="#DBE3E6"/>
<circle cx="961.5" cy="2.20825" r="1.5" transform="rotate(-90 961.5 2.20825)" fill="#DBE3E6"/>
<circle cx="997.5" cy="2.20825" r="1.5" transform="rotate(-90 997.5 2.20825)" fill="#DBE3E6"/>
<circle cx="31.5" cy="2.20825" r="1.5" transform="rotate(-90 31.5 2.20825)" fill="#DBE3E6"/>
<circle cx="67.5" cy="2.20825" r="1.5" transform="rotate(-90 67.5 2.20825)" fill="#DBE3E6"/>
<circle cx="103.5" cy="2.20825" r="1.5" transform="rotate(-90 103.5 2.20825)" fill="#DBE3E6"/>
<circle cx="139.5" cy="2.20825" r="1.5" transform="rotate(-90 139.5 2.20825)" fill="#DBE3E6"/>
<circle cx="175.5" cy="2.20825" r="1.5" transform="rotate(-90 175.5 2.20825)" fill="#DBE3E6"/>
<circle cx="211.5" cy="2.20825" r="1.5" transform="rotate(-90 211.5 2.20825)" fill="#DBE3E6"/>
<circle cx="247.5" cy="2.20825" r="1.5" transform="rotate(-90 247.5 2.20825)" fill="#DBE3E6"/>
<circle cx="283.5" cy="2.20825" r="1.5" transform="rotate(-90 283.5 2.20825)" fill="#DBE3E6"/>
<circle cx="319.5" cy="2.20825" r="1.5" transform="rotate(-90 319.5 2.20825)" fill="#DBE3E6"/>
<circle cx="355.5" cy="2.20825" r="1.5" transform="rotate(-90 355.5 2.20825)" fill="#DBE3E6"/>
<circle cx="391.5" cy="2.20825" r="1.5" transform="rotate(-90 391.5 2.20825)" fill="#DBE3E6"/>
<circle cx="427.5" cy="2.20825" r="1.5" transform="rotate(-90 427.5 2.20825)" fill="#DBE3E6"/>
<circle cx="463.5" cy="2.20825" r="1.5" transform="rotate(-90 463.5 2.20825)" fill="#DBE3E6"/>
<circle cx="499.5" cy="2.20825" r="1.5" transform="rotate(-90 499.5 2.20825)" fill="#DBE3E6"/>
<circle cx="535.5" cy="2.20825" r="1.5" transform="rotate(-90 535.5 2.20825)" fill="#DBE3E6"/>
<circle cx="571.5" cy="2.20825" r="1.5" transform="rotate(-90 571.5 2.20825)" fill="#DBE3E6"/>
<circle cx="607.5" cy="2.20825" r="1.5" transform="rotate(-90 607.5 2.20825)" fill="#DBE3E6"/>
<circle cx="643.5" cy="2.20825" r="1.5" transform="rotate(-90 643.5 2.20825)" fill="#DBE3E6"/>
<circle cx="679.5" cy="2.20825" r="1.5" transform="rotate(-90 679.5 2.20825)" fill="#DBE3E6"/>
<circle cx="715.5" cy="2.20825" r="1.5" transform="rotate(-90 715.5 2.20825)" fill="#DBE3E6"/>
<circle cx="751.5" cy="2.20825" r="1.5" transform="rotate(-90 751.5 2.20825)" fill="#DBE3E6"/>
<circle cx="787.5" cy="2.20825" r="1.5" transform="rotate(-90 787.5 2.20825)" fill="#DBE3E6"/>
<circle cx="823.5" cy="2.20825" r="1.5" transform="rotate(-90 823.5 2.20825)" fill="#DBE3E6"/>
<circle cx="859.5" cy="2.20825" r="1.5" transform="rotate(-90 859.5 2.20825)" fill="#DBE3E6"/>
<circle cx="895.5" cy="2.20825" r="1.5" transform="rotate(-90 895.5 2.20825)" fill="#DBE3E6"/>
<circle cx="931.5" cy="2.20825" r="1.5" transform="rotate(-90 931.5 2.20825)" fill="#DBE3E6"/>
<circle cx="967.5" cy="2.20825" r="1.5" transform="rotate(-90 967.5 2.20825)" fill="#DBE3E6"/>
<circle cx="1003.5" cy="2.20825" r="1.5" transform="rotate(-90 1003.5 2.20825)" fill="#DBE3E6"/>
</svg>
