<svg width="1599" height="19" viewBox="0 0 1599 19" fill="none" xmlns="http://www.w3.org/2000/svg">
<path d="M1599 0.125828H1588.88C1581.76 0.125828 1542.66 6.98344 1542.16 6.85762C1539.41 6.10265 1520.17 7.36093 1517.3 9.43709C1517.3 9.43709 1505.06 11.5132 1504.43 11.5132C1502.81 11.5132 1488.69 9.62583 1488.19 9.9404C1487.32 10.3808 1470.96 12.2682 1470.96 13.2748C1468.08 12.457 1444.47 18.1821 1441.72 17.4901C1440.47 17.9934 1438.98 18.4338 1437.6 19C1435.35 17.8046 1433.48 16.8609 1431.73 15.9172C1428.36 16.4205 1425.73 16.798 1422.86 17.2384C1422.24 17.1755 1421.61 17.0497 1420.99 16.9238C1415.99 16.106 1414.37 16.2947 1411.87 17.7417C1409.74 19.0629 1405.25 19.1258 1401.75 18.245C1399.25 17.6159 1396 16.6093 1393.63 16.798C1388.01 17.2384 1386.13 16.106 1383.51 15.1623C1381.64 14.4702 1379.64 13.8411 1377.76 13.2119C1375.51 13.7152 1373.39 13.9669 1371.14 14.4702C1370.77 13.9669 1370.27 13.6523 1370.14 13.2119C1369.52 13.2119 1369.14 13.2119 1368.64 13.2748V16.798C1366.15 16.2947 1364.27 16.043 1362.65 15.6656C1361.02 16.1689 1359.77 16.6722 1358.28 17.1755C1351.9 16.4205 1345.66 15.9172 1339.16 17.1126C1338.16 17.3013 1336.41 17.3013 1335.41 17.1755C1333.92 16.9868 1332.67 16.5464 1331.29 16.1689C1329.79 16.3576 1328.42 16.6722 1326.55 16.8609C1324.42 16.1689 1322.8 15.0364 1318.43 15.8543C1317.43 16.043 1315.55 15.7914 1314.05 15.6656C1309.06 15.1623 1304.31 14.7848 1299.19 14.4073C1297.31 14.2815 1295.44 14.5331 1293.32 14.596C1292.07 14.6589 1291.07 14.7219 1289.82 14.7219C1282.32 14.9106 1275.08 13.2748 1267.58 14.6589C1266.96 14.7848 1265.96 14.7848 1265.33 14.7219C1260.59 13.7152 1254.97 13.9669 1249.72 13.904C1248.47 13.904 1246.97 13.5894 1245.85 13.3377C1243.6 12.8344 1233.98 12.394 1231.48 12.6457C1225.86 13.149 1221.36 12.8344 1218.86 11.1987C1202.87 12.2053 1202.87 12.2053 1197.5 10.6325C1194.63 10.8841 1190.01 11.6391 1188.63 11.3245C1182.76 9.81457 1179.89 11.1987 1176.39 12.2053C1170.14 11.5132 1162.9 12.7086 1156.65 11.3245C1147.53 13.0232 1138.04 13.0232 1128.04 11.4503C1121.8 13.7781 1116.05 13.8411 1110.81 11.4503C1110.43 12.2682 1109.93 13.0232 1109.56 13.8411C1105.43 13.3377 1101.94 13.149 1098.81 12.7086C1095.44 12.2682 1091.32 11.2616 1089.44 11.5132C1084.2 12.3311 1082.82 10.3808 1078.2 10.6325C1076.95 11.1987 1075.33 12.0166 1073.2 12.8344C1071.58 12.6457 1069.71 12.394 1068.21 12.2053C1063.83 11.5132 1059.71 10.947 1055.34 12.2053C1054.72 12.394 1053.09 12.3311 1051.84 12.2682C1048.72 12.1424 1045.85 11.8278 1042.47 11.702C1041.47 11.1358 1040.35 10.5066 1039.6 9.87748C1028.98 10.5695 1019.11 11.5132 1008.74 10.1291C1008.37 10.0662 1007.25 10.1921 1006.62 10.3179C1003.75 11.0728 1002 10.5066 1000.25 9.81457C998.75 9.37417 996.877 8.68212 995.253 8.68212C986.133 8.55629 976.764 8.93377 967.645 8.49338C963.897 8.30464 959.15 8.68212 956.402 8.05298C952.279 7.10927 948.907 7.48676 945.034 7.73841C941.661 7.99007 938.788 8.30464 936.165 9.0596C933.666 9.68874 930.793 9.37417 930.418 8.36755C930.043 7.42384 928.169 6.92053 925.796 7.04636C921.674 7.54967 917.301 7.2351 913.304 8.17881C907.308 9.5 900.062 9.87748 892.942 8.61921C890.818 8.17881 888.819 7.99007 886.695 7.61258C886.321 7.54967 885.696 7.54967 884.822 7.54967C883.323 7.99007 881.948 8.30464 880.449 8.74503C877.951 7.61258 874.703 7.61258 871.58 8.17881C868.082 8.68212 864.584 8.99669 860.587 8.74503C857.214 8.55629 853.716 8.43046 850.218 8.30464C847.72 8.24172 844.597 7.80132 842.973 8.87086C842.723 9.0596 841.099 9.12252 840.224 9.0596C835.602 8.61921 831.105 8.11589 826.483 7.6755C826.233 7.86424 825.858 7.99007 825.858 8.11589C825.609 8.30464 825.609 8.61921 825.609 8.61921C823.36 8.30464 820.987 7.86424 818.613 7.73841C816.364 7.61258 812.742 8.17881 811.368 7.80133C806.621 6.60596 801.249 7.04636 796.002 6.60596C793.254 8.17881 793.254 8.17881 788.757 7.17219C787.882 6.98344 786.883 6.85762 785.883 6.85762C782.136 6.92053 778.263 6.98344 774.516 7.17219C771.143 7.36093 767.52 7.48676 765.022 8.05298C762.523 8.61921 760.274 8.87086 757.401 8.80795C751.655 8.68212 745.784 8.6192 740.037 8.49338C734.666 8.36755 729.294 8.24172 722.173 7.99007C720.05 8.30464 716.302 8.74503 712.804 9.37417C708.182 10.255 703.935 10.255 699.313 9.31126C697.189 8.87086 693.691 8.30464 692.442 8.55629C688.319 9.43709 690.318 7.73841 688.694 7.86424C686.446 8.05298 684.072 8.43046 682.323 8.30464C677.701 8.05298 673.454 8.43046 668.832 8.36755C662.586 8.30464 656.339 8.36755 654.341 5.78808C648.095 7.29801 642.973 6.41722 638.101 5.47351C636.477 5.97682 635.353 6.3543 634.603 6.66887C632.479 6.3543 630.855 5.85099 629.356 5.97682C625.983 6.16556 623.11 6.66887 620.237 7.10927C618.988 6.85762 617.739 6.48013 616.489 6.41722C610.118 6.16556 603.622 6.16556 597.376 5.85099C594.878 5.72517 591.13 6.16556 589.132 5.15894C588.757 4.9702 585.634 4.90728 585.009 5.15894C582.261 6.3543 578.638 5.91391 575.015 5.78808C570.893 5.59934 566.771 5.47351 562.773 6.22848C560.899 6.54305 557.776 6.73179 556.152 6.3543C550.406 5.15894 544.285 4.71854 537.539 4.27815C530.543 3.77483 525.296 4.59271 520.175 5.66225C518.051 5.03311 516.052 4.65563 513.304 5.4106C507.308 7.29801 500.687 6.73179 493.816 5.85099C490.318 6.35431 486.945 7.92715 481.824 6.60596C474.828 7.10927 467.957 7.04636 461.336 5.97682C460.462 5.85099 458.838 5.91391 458.463 6.10265C456.34 6.73179 454.091 7.2351 450.968 7.10927C449.469 8.68212 445.971 7.6755 443.348 7.61258C440.225 7.61258 436.977 6.98344 434.478 7.29801C431.355 7.73841 428.232 7.54967 425.359 7.80133C421.861 8.05298 417.864 7.29801 414.116 7.29801C407.495 7.10927 401.624 6.41722 396.752 5.03311C395.752 4.78146 394.628 4.46689 393.629 4.46689C388.882 4.27815 384.135 4.02649 379.263 4.21523C374.641 4.40397 370.144 4.65563 365.396 4.27815C364.147 4.21523 362.523 4.59272 361.274 4.84437C358.151 5.47351 355.278 6.03974 351.155 5.53642C348.407 5.28477 345.909 5.53642 346.408 6.66887C343.535 6.60596 340.162 6.16556 337.539 6.48013C335.04 6.73179 333.791 7.04636 331.917 6.16556C331.043 5.85099 327.92 6.10265 326.171 5.85099C320.924 5.28477 316.052 4.34106 310.806 3.96358C308.057 3.77483 303.935 3.77483 301.436 4.78146C297.064 6.41722 294.816 6.29139 287.695 5.34768C286.071 5.15894 284.197 4.84437 282.323 4.78146C278.201 4.65563 273.829 4.59272 268.832 4.46689C266.333 6.29139 261.337 7.73841 254.466 8.87086V6.92053C248.844 9.31126 240.974 8.80795 234.353 9.68874C228.732 8.55629 223.11 7.54967 216.115 6.22848C209.869 6.85762 204.122 8.17881 197.002 6.98344C195.753 6.7947 193.004 6.92053 192.005 7.2351C188.007 8.43046 182.636 8.43046 178.264 9.24834C173.017 10.255 167.27 11.0728 161.649 11.8907C160.15 12.0795 146.908 10.3808 145.409 10.3808C137.164 10.3808 120.05 3.1457 113.429 4.21523C105.809 5.47351 97.1892 4.0894 88.3198 4.84437C78.2011 3.39735 69.2067 0.314569 63.5852 -2.65418e-07L0 -2.65418e-07L1599 0.125828ZM215.99 6.41722C216.115 6.41722 216.365 6.41722 215.99 6.41722V6.41722Z" fill="#5B9574"/>
</svg>
