<svg width="664" height="59" viewBox="0 0 664 59" fill="none" xmlns="http://www.w3.org/2000/svg">
<path d="M1101.98 58.4357H1106.85L1108.07 57.2183L1115.37 53.5661L1121.46 48.6964L1123.89 47.479H1127.55L1139.72 48.6964L1145.81 46.2616L1154.33 42.6094H1164.07L1167.72 45.0442H1188.42L1201.81 41.392L1205.46 42.6094L1210.33 43.8268L1211.55 42.6094L1222.5 43.8268L1227.37 45.0442L1237.11 47.479L1249.29 53.5661L1257.81 52.3487L1261.46 49.9138H1269.98L1276.07 48.6964H1278.5L1284.59 47.479L1291.9 46.2616L1295.55 42.6094L1306.51 35.3049L1311.38 3.65223V0H-393L-391.783 3.65223L-390.565 7.30446L-388.13 10.9567L-378.391 13.3915L-373.521 12.1741L-368.652 8.52187L-366.217 7.30446L-357.695 3.65223L-354.043 2.43482L-350.391 1.21741L-340.651 3.65223H-323.608L-322.39 2.43482L-316.303 4.86964L-311.433 8.52187L-310.216 9.73929L-298.042 7.30446L-294.39 6.08705L-282.216 7.30446L-277.346 6.08705L-276.129 4.86964L-265.172 6.08705L-259.085 8.52187H-256.65L-248.128 7.30446L-244.476 8.52187H-235.954L-222.562 12.1741L-209.171 13.3915L-189.692 14.6089L-171.431 12.1741H-154.387L-137.344 13.3915H-126.387L-108.126 8.52187L-105.691 9.73929L-102.039 10.9567L-95.9518 9.73929H-66.7339L-43.6031 8.52187H-42.3856L-35.0812 6.08705L-31.429 8.52187L-26.5593 12.1741L-16.8201 19.4786L-10.733 21.9134L0.223633 23.1308L5.09338 20.696H7.5282L18.4849 19.4786L27.0067 18.2612L29.4415 17.0437V15.8263L31.8763 13.3915L40.3982 15.8263L45.2679 17.0437L50.1376 14.6089L56.2246 15.8263L70.8335 19.4786L79.3553 20.696L92.7469 24.3482L107.356 25.5656H109.791L130.487 26.783L136.574 29.2179L145.096 35.3049L149.965 37.7397L158.487 36.5223L162.139 35.3049L169.444 34.0875L177.966 31.6527L190.14 30.4353H196.227L204.749 29.2179L208.401 28.0004H210.836L216.923 29.2179H223.01L225.445 30.4353L235.184 29.2179L240.054 25.5656L242.488 26.783L247.358 30.4353L254.662 34.0875H261.967L269.271 35.3049L271.706 34.0875L280.228 32.8701L285.098 34.0875L291.185 35.3049L302.142 32.8701L313.098 34.0875H335.012L361.795 32.8701L373.969 30.4353L378.838 26.783L382.491 24.3482H389.795L397.1 25.5656L404.404 29.2179H421.448L423.883 31.6527L429.97 32.8701H439.709L447.013 30.4353H451.883L460.405 29.2179H462.84L476.231 30.4353L490.84 25.5656L498.145 23.1308L505.449 20.696L510.319 19.4786L520.058 24.3482L524.928 23.1308L529.797 20.696L535.884 19.4786L537.102 20.696L541.971 25.5656H554.146L561.45 28.0004L576.059 23.1308L577.276 20.696L580.929 15.8263L583.363 12.1741L588.233 8.52187H591.885L595.538 7.30446V4.86964L597.972 2.43482L600.407 3.65223L602.842 7.30446L605.277 8.52187L607.712 6.08705L611.364 4.86964L616.234 8.52187H619.886L628.408 3.65223L636.93 4.86964L641.799 6.08705L653.973 4.86964L662.495 1.21741L664.93 0H677.104L679.539 1.21741L688.061 3.65223H691.713L702.67 12.1741H705.104L707.539 9.73929L712.409 8.52187L733.105 7.30446H746.496L750.149 4.86964L759.888 3.65223L768.41 4.86964H772.062L775.714 6.08705L784.236 2.43482L786.671 1.21741L789.106 0L791.541 1.21741L806.15 0L814.671 1.21741L819.541 2.43482L824.411 7.30446H826.846V2.43482H835.367L840.237 1.21741H847.542L852.411 0L860.933 1.21741L885.281 6.08705L899.89 4.86964L907.195 6.08705L929.108 4.86964H931.543L935.195 8.52187L940.065 13.3915L951.021 15.8263L953.456 12.1741L958.326 13.3915H959.543L964.413 14.6089L970.5 15.8263L981.457 19.4786L987.544 23.1308L991.196 29.2179L992.413 30.4353L996.066 31.6527L1000.94 32.8701L1005.8 30.4353L1008.24 31.6527V32.8701L1010.67 34.0875L1015.54 31.6527L1019.2 32.8701L1027.72 40.1746L1031.37 41.392L1036.24 43.8268L1041.11 48.6964L1050.85 51.1312H1053.28L1064.24 48.6964L1070.33 47.479L1092.24 53.5661L1101.98 58.4357Z" fill="#638E9D"/>
</svg>
