<svg width="664" height="40" viewBox="0 0 664 40" fill="none" xmlns="http://www.w3.org/2000/svg">
<path d="M1150.07 39.7091H1114.94C1114.43 39.4508 1113.79 39.58 1113.02 39.3217C1110.71 39.9674 1109.3 39.1925 1107.12 39.0634C1104.94 39.1925 1102.89 39.4508 1100.71 39.4508C1091.48 39.58 1082.76 38.8051 1073.79 38.676C1073.02 38.676 1072.38 38.5468 1071.61 38.4177C1065.45 37.7719 1059.3 37.7719 1053.4 38.4177C1051.22 38.676 1048.91 38.9343 1046.86 38.8051C1042.89 38.5468 1038.78 38.8051 1034.81 38.8051C1029.17 38.8051 1023.78 38.4177 1018.27 38.5468C1012.12 38.676 1006.73 37.5137 1000.58 37.9011C1000.32 37.9011 999.681 37.7719 999.425 37.7719C997.501 37.3845 995.45 37.3845 993.014 37.5137C991.604 37.6428 990.194 37.6428 988.527 37.5137C984.552 37.5137 984.552 37.5137 980.321 38.0302C977.757 37.9011 975.321 37.5137 973.014 37.5137C969.68 37.5137 969.296 36.7388 967.116 36.4805H966.475C963.398 36.6096 961.475 36.2222 959.424 35.7056C957.244 35.189 954.68 34.9307 951.603 35.3182C950.705 35.4473 949.295 35.3182 948.013 35.3182C943.269 34.9307 938.397 34.6725 933.654 34.285C925.833 33.5101 918.397 32.8644 910.576 32.0895C906.986 31.7021 903.781 31.3147 901.858 30.6689C898.781 30.7981 895.96 30.9272 893.14 31.1855C889.55 30.7981 886.088 30.2815 884.165 29.3775C883.652 29.1192 881.857 28.8609 881.088 28.7318C875.96 28.8609 871.216 29.1192 866.472 29.2483C865.831 29.1192 865.062 28.8609 864.165 28.7318C862.498 28.6026 860.831 28.2152 859.421 28.3443C854.677 28.6026 850.446 28.3443 845.959 28.2152C841.215 28.086 837.497 27.6986 833.651 27.0529C831.087 26.5363 828.01 26.0197 824.035 26.5363C821.856 26.7946 819.035 26.6654 816.727 26.7946C813.907 26.9237 811.086 26.7946 808.65 26.5363C806.343 26.1488 804.163 26.0197 801.342 26.1488C798.009 26.278 795.188 26.1488 792.624 25.7614C790.06 25.5031 787.496 25.2448 784.803 25.1157C782.496 24.9865 779.419 24.9865 778.008 24.3408C776.342 23.6951 773.777 23.5659 771.47 23.5659C767.752 23.5659 764.675 23.3076 761.854 22.7911C759.546 22.4036 757.11 22.1453 754.033 22.2745C752.367 22.2745 750.315 22.2745 749.033 22.0162C746.469 21.4996 743.649 21.4996 740.315 21.3705C738.007 20.3373 734.417 19.8207 729.289 20.079C725.058 19.5624 719.802 19.8207 716.34 18.9167C715.186 18.5293 712.622 18.5293 710.699 18.9167C707.878 19.3041 704.801 19.3041 701.981 18.9167C698.647 18.4001 695.442 18.5293 692.109 18.7876C685.057 19.4333 678.006 19.9499 670.185 20.079C669.031 20.079 667.877 20.2082 666.595 20.4664C663.005 20.983 659.8 21.2413 655.697 20.983C653.133 20.8539 650.313 20.983 647.236 20.8539C644.159 21.3705 641.338 22.0162 636.851 22.0162C635.953 22.0162 634.928 22.1453 634.287 22.2745C630.056 23.0494 625.568 23.1785 620.825 22.7911C611.85 22.2745 602.619 21.887 593.516 21.6288C591.85 21.6288 590.183 21.3705 588.516 21.2413C583.388 22.2745 577.49 22.2745 571.336 22.0162C567.105 21.887 562.874 21.3705 558.131 21.3705C556.208 21.3705 553.643 21.1122 552.233 20.5956C551.464 20.3373 550.566 20.2082 548.9 20.3373H546.079C539.284 19.3041 530.694 18.9167 525.822 17.2378C518.001 16.9795 510.437 16.7212 503.257 16.4629C497.103 16.2046 490.949 16.0755 484.924 16.7212C483.513 16.8504 481.334 16.8504 479.795 16.7212C478.129 16.5921 476.975 16.5921 475.564 16.7212C471.975 17.1087 468.769 16.7212 465.949 16.2046C464.026 16.4629 462.615 16.7212 460.949 16.9795C459.025 17.1087 457.231 17.367 455.307 17.367C449.923 17.2378 444.281 17.2378 438.769 17.367C436.845 17.367 435.179 17.2378 434.025 16.8504C431.461 16.0755 427.871 16.0755 424.409 15.9464C419.281 15.8172 414.024 15.6881 409.024 15.4298C405.691 14.784 403.896 13.88 399.152 13.6217C395.562 14.1383 391.844 14.0092 387.87 13.7509C385.562 13.6217 383.639 13.3634 381.716 12.976C380.049 12.7177 378.382 12.2011 376.587 12.2011C372.998 12.072 369.792 11.8137 367.869 11.0388C367.613 11.4263 366.715 11.2971 365.946 11.2971C361.459 10.9097 356.459 11.0388 352.099 10.5222C350.946 10.2639 348.766 10.6514 347.099 10.6514C346.202 10.6514 345.176 10.6514 344.279 10.5222C342.356 10.3931 340.561 10.2639 338.381 10.1348C332.74 9.87651 327.483 9.23078 322.868 8.32676C321.714 8.06847 320.304 7.81018 318.894 7.81018C316.329 7.81018 314.15 7.42275 312.099 7.03531C308.765 6.51873 305.56 6.00214 301.714 5.61471C296.713 5.09813 292.098 4.4524 285.944 4.71069C281.969 4.83984 277.739 3.93582 276.969 3.0318C276.456 2.12778 274.405 1.6112 272.226 0.965469C269.149 0.965469 266.328 0.836324 263.764 0.836324C259.02 0.836324 254.276 0.578033 249.661 0.965469C244.917 1.35291 240.045 1.6112 234.789 1.09461C232.609 0.965469 230.301 1.09461 227.737 1.09461C225.814 1.99863 223.25 2.51522 219.275 2.51522C215.686 2.51522 213.634 3.0318 211.455 3.54838C210.301 3.80667 209.275 4.06496 208.121 4.32325C203.89 3.93582 202.737 3.93582 197.095 4.32325C196.198 4.32325 195.172 4.4524 194.275 4.4524C193.377 4.4524 192.352 4.58154 191.711 4.71069C188.89 5.22727 186.582 5.74385 182.736 5.873C181.967 5.873 181.069 6.13129 180.556 6.38958C179.403 6.77702 178.377 7.16445 177.223 7.42275C172.736 7.16445 169.018 7.42275 164.787 7.68104C158.376 7.93933 151.838 7.93933 145.171 8.06847C138.76 8.06847 132.222 8.06847 126.068 7.55189C125.555 7.55189 125.17 7.42275 124.658 7.42275C119.914 7.2936 115.17 6.90616 110.811 7.68104C109.914 7.81018 108.503 7.81018 107.221 7.93933C102.734 8.32676 98.503 8.45591 94.2721 7.81018C89.1437 7.03531 83.3743 7.68104 77.9896 7.81018C77.0922 7.81018 76.0665 8.06847 75.6819 8.19762C74.0151 8.84335 71.451 8.84335 68.8868 8.84335H64.6559C61.5789 10.2639 60.1686 10.6514 54.0146 11.6845C52.0915 11.9428 50.0402 12.2011 47.8606 12.4594C44.7836 12.8469 41.4501 12.8469 38.2449 12.7177C34.2705 12.5886 30.1678 12.4594 26.4498 12.2011C24.7831 12.2011 22.8599 12.072 21.4496 11.8137C18.1162 11.168 15.2957 11.0388 11.834 11.6845C10.2955 12.072 7.47491 12.072 7.21851 12.4594C6.06461 13.2343 3.24402 13.3634 1.06445 13.6217C-3.42285 14.3966 -8.16653 14.784 -11.2435 15.9464C-12.9102 16.5921 -15.4744 16.9795 -17.7822 17.367C-20.3463 17.8835 -22.9106 18.4001 -25.8593 18.5293C-30.0902 18.7876 -33.68 19.3041 -35.7314 20.079C-37.3981 20.079 -38.8084 20.079 -39.9623 20.2082C-41.3726 20.3373 -42.5264 20.5956 -43.9367 20.7247C-45.0906 20.8539 -46.5009 20.7247 -47.5266 20.7247C-48.6805 20.8539 -49.4497 21.3705 -50.6036 21.4996C-52.7831 21.7579 -55.0909 22.0162 -57.3986 22.2745C-62.7834 22.6619 -68.4246 22.6619 -73.4247 23.1785C-79.5787 23.8242 -85.4763 24.0825 -91.7585 23.6951H-94.0663C-100.605 23.3076 -107.528 23.4368 -113.682 22.6619C-117.657 22.0162 -122.4 21.887 -127.529 22.0162C-131.76 22.1453 -135.991 21.887 -139.965 21.3705C-142.145 21.1122 -144.452 20.7247 -146.76 20.5956C-149.581 20.4664 -151.888 20.3373 -154.068 19.6916C-154.837 19.4333 -156.376 19.3041 -157.401 19.4333C-161.632 19.5624 -165.222 19.175 -168.94 18.7876C-172.53 18.5293 -175.479 18.1418 -177.402 17.4961C-180.735 16.3338 -185.607 16.2046 -191.12 16.4629C-194.454 16.7212 -197.531 17.1087 -198.941 17.7544C-199.838 18.271 -201.761 18.5293 -203.428 18.7876C-204.838 19.0458 -207.018 19.175 -207.915 19.4333C-209.839 19.9499 -212.146 20.079 -214.326 20.3373C-219.711 21.1122 -225.865 21.2413 -231.762 21.3705C-240.993 21.6288 -250.353 22.0162 -259.327 20.983C-261.507 20.7247 -263.814 20.7247 -266.122 21.1122C-266.122 22.0162 -268.43 22.4036 -271.122 22.9202C-273.686 23.4368 -276.122 23.9534 -278.943 24.2117C-283.687 24.9865 -287.661 25.8906 -293.046 26.5363C-299.841 27.3112 -306.764 27.9569 -313.559 28.7318C-318.559 29.2483 -323.175 29.6358 -327.662 30.2815C-329.329 30.5398 -331.38 30.6689 -333.303 30.7981C-336.637 31.0564 -340.611 31.0564 -343.432 31.573C-347.663 32.3478 -351.894 32.477 -356.894 32.477C-359.971 32.477 -363.304 32.8644 -366.381 32.9936C-370.356 34.0267 -375.997 34.1559 -380.741 34.9307C-384.074 35.4473 -387.279 35.4473 -390.869 35.189C-395.613 34.9307 -400.357 34.8016 -404.972 35.189C-406.126 35.3182 -407.536 35.3182 -408.69 35.189C-414.844 34.8016 -420.229 35.0599 -424.716 36.2222C-425.229 36.3513 -425.87 36.3513 -426.639 36.4805C-431.768 37.2554 -438.178 37.3845 -443.178 38.1594C-446.255 38.0302 -448.563 38.1594 -449.973 38.9343C-450.23 39.0634 -451.896 39.0634 -452.794 39.1925C-454.204 39.1925 -456.127 39.1925 -457.281 39.3217L-466.512 39.7091H-491" fill="#638E9D"/>
</svg>
