<svg width="1120" height="32" viewBox="0 0 1120 32" fill="none" xmlns="http://www.w3.org/2000/svg">
<path d="M1280 0H1251.14C1250.72 0.212166 1250.2 0.106083 1249.56 0.318247C1247.67 -0.212166 1246.51 0.42433 1244.72 0.530411C1242.93 0.42433 1241.24 0.212166 1239.45 0.212166C1231.87 0.106085 1224.71 0.742575 1217.34 0.848658C1216.71 0.848658 1216.18 0.954741 1215.55 1.06082C1210.49 1.59123 1205.44 1.59123 1200.59 1.06082C1198.8 0.848658 1196.91 0.636494 1195.22 0.742577C1191.96 0.954741 1188.59 0.742577 1185.32 0.742577C1180.69 0.742577 1176.27 1.06082 1171.74 0.954741C1166.68 0.848658 1162.26 1.8034 1157.21 1.48515C1156.99 1.48515 1156.47 1.59123 1156.26 1.59123C1154.68 1.90948 1152.99 1.90948 1150.99 1.8034C1149.83 1.69732 1148.68 1.69732 1147.31 1.8034C1144.04 1.8034 1144.04 1.8034 1140.57 1.37907C1138.46 1.48515 1136.46 1.8034 1134.56 1.8034C1131.83 1.8034 1131.51 2.43989 1129.72 2.65205H1129.19C1126.67 2.54597 1125.09 2.86422 1123.4 3.28855C1121.61 3.71288 1119.5 3.92504 1116.98 3.60679C1116.24 3.50071 1115.08 3.60679 1114.03 3.60679C1110.13 3.92504 1106.13 4.13721 1102.23 4.45545C1095.81 5.09194 1089.7 5.62235 1083.28 6.25885C1080.33 6.57709 1077.69 6.89534 1076.12 7.42575C1073.59 7.31967 1071.27 7.21359 1068.95 7.00142C1066.01 7.31967 1063.16 7.744 1061.58 8.48657C1061.16 8.69874 1059.69 8.9109 1059.05 9.01698C1054.84 8.9109 1050.95 8.69874 1047.05 8.59265C1046.52 8.69874 1045.89 8.9109 1045.15 9.01698C1043.78 9.12306 1042.42 9.44131 1041.26 9.33523C1037.36 9.12306 1033.88 9.33523 1030.2 9.44131C1026.3 9.54739 1023.25 9.86564 1020.09 10.396C1017.98 10.8204 1015.45 11.2447 1012.19 10.8204C1010.4 10.6082 1008.08 10.7143 1006.19 10.6082C1003.87 10.5021 1001.55 10.6082 999.553 10.8204C997.657 11.1386 995.867 11.2447 993.55 11.1386C990.812 11.0325 988.495 11.1386 986.389 11.4569C984.283 11.669 982.176 11.8812 979.965 11.9873C978.069 12.0934 975.542 12.0934 974.383 12.6238C973.014 13.1542 970.908 13.2603 969.012 13.2603C965.958 13.2603 963.431 13.4724 961.114 13.8968C959.218 14.215 957.217 14.4272 954.69 14.3211C953.321 14.3211 951.636 14.3211 950.583 14.5333C948.476 14.9576 946.159 14.9576 943.421 15.0637C941.526 15.9123 938.577 16.3366 934.364 16.1245C930.889 16.5488 926.571 16.3366 923.728 17.0792C922.78 17.3975 920.674 17.3975 919.094 17.0792C916.777 16.761 914.25 16.761 911.933 17.0792C909.195 17.5036 906.562 17.3975 903.824 17.1853C898.032 16.6549 892.239 16.2306 885.815 16.1245C884.868 16.1245 883.92 16.0184 882.867 15.8062C879.918 15.3819 877.285 15.1697 873.915 15.3819C871.809 15.488 869.492 15.3819 866.964 15.488C864.437 15.0637 862.12 14.5333 858.434 14.5333C857.697 14.5333 856.854 14.4272 856.328 14.3211C852.853 13.6846 849.167 13.5785 845.27 13.8968C837.898 14.3211 830.316 14.6393 822.839 14.8515C821.469 14.8515 820.1 15.0637 818.731 15.1697C814.519 14.3211 809.674 14.3211 804.619 14.5333C801.144 14.6393 797.669 15.0637 793.772 15.0637C792.193 15.0637 790.086 15.2758 788.928 15.7002C788.296 15.9123 787.559 16.0184 786.19 15.9123H783.873C778.291 16.761 771.235 17.0792 767.233 18.4583C760.809 18.6705 754.596 18.8826 748.698 19.0948C743.643 19.3069 738.588 19.413 733.639 18.8826C732.48 18.7765 730.69 18.7765 729.426 18.8826C728.057 18.9887 727.109 18.9887 725.951 18.8826C723.002 18.5644 720.369 18.8826 718.053 19.3069C716.473 19.0948 715.314 18.8826 713.945 18.6705C712.366 18.5644 710.891 18.3522 709.312 18.3522C704.888 18.4583 700.255 18.4583 695.726 18.3522C694.147 18.3522 692.778 18.4583 691.83 18.7765C689.723 19.413 686.775 19.413 683.931 19.5191C679.719 19.6252 675.401 19.7313 671.294 19.9434C668.556 20.4739 667.081 21.2164 663.185 21.4286C660.236 21.0043 657.182 21.1103 653.917 21.3225C652.022 21.4286 650.442 21.6408 648.862 21.959C647.493 22.1712 646.124 22.5955 644.65 22.5955C641.701 22.7016 639.068 22.9137 637.488 23.5502C637.278 23.232 636.541 23.3381 635.909 23.3381C632.223 23.6563 628.116 23.5502 624.535 23.9746C623.587 24.1867 621.797 23.8685 620.428 23.8685C619.691 23.8685 618.848 23.8685 618.111 23.9746C616.531 24.0806 615.057 24.1867 613.267 24.2928C608.633 24.505 604.315 25.0354 600.524 25.778C599.576 25.9901 598.418 26.2023 597.259 26.2023C595.153 26.2023 593.363 26.5205 591.678 26.8388C588.939 27.2631 586.307 27.6874 583.147 28.0057C579.04 28.43 575.249 28.9604 570.194 28.7483C566.929 28.6422 563.454 29.3848 562.822 30.1273C562.401 30.8699 560.716 31.2942 558.925 31.8246C556.398 31.8246 554.081 31.9307 551.975 31.9307C548.078 31.9307 544.182 32.1429 540.39 31.8246C536.494 31.5064 532.492 31.2942 528.174 31.7186C526.384 31.8246 524.488 31.7186 522.382 31.7186C520.802 30.976 518.696 30.5517 515.431 30.5517C512.482 30.5517 510.798 30.1273 509.007 29.703C508.059 29.4908 507.217 29.2787 506.269 29.0665C502.794 29.3848 501.846 29.3848 497.212 29.0665C496.475 29.0665 495.633 28.9604 494.895 28.9604C494.158 28.9604 493.316 28.8543 492.789 28.7483C490.472 28.3239 488.577 27.8996 485.417 27.7935C484.785 27.7935 484.048 27.5814 483.627 27.3692C482.679 27.0509 481.837 26.7327 480.889 26.5205C477.203 26.7327 474.149 26.5205 470.673 26.3084C465.408 26.0962 460.037 26.0962 454.561 25.9901C449.295 25.9901 443.924 25.9901 438.869 26.4145C438.448 26.4145 438.132 26.5205 437.711 26.5205C433.814 26.6266 429.918 26.9449 426.337 26.3084C425.6 26.2023 424.441 26.2023 423.388 26.0962C419.702 25.778 416.227 25.6719 412.752 26.2023C408.539 26.8388 403.8 26.3084 399.377 26.2023C398.64 26.2023 397.797 25.9901 397.481 25.884C396.112 25.3536 394.006 25.3536 391.9 25.3536H388.424C385.897 24.1867 384.738 23.8685 379.683 23.0198C378.104 22.8077 376.419 22.5955 374.628 22.3833C372.101 22.0651 369.363 22.0651 366.73 22.1712C363.465 22.2772 360.095 22.3833 357.041 22.5955C355.672 22.5955 354.093 22.7016 352.934 22.9137C350.196 23.4442 347.879 23.5502 345.036 23.0198C343.772 22.7016 341.455 22.7016 341.244 22.3833C340.297 21.7468 337.98 21.6408 336.189 21.4286C332.503 20.7921 328.607 20.4739 326.079 19.5191C324.71 18.9887 322.604 18.6705 320.708 18.3522C318.602 17.9279 316.496 17.5036 314.074 17.3975C310.598 17.1853 307.65 16.761 305.965 16.1245C304.596 16.1245 303.437 16.1245 302.489 16.0184C301.331 15.9123 300.383 15.7002 299.225 15.5941C298.277 15.488 297.118 15.5941 296.276 15.5941C295.328 15.488 294.696 15.0637 293.748 14.9576C291.958 14.7454 290.063 14.5333 288.167 14.3211C283.744 14.0028 279.11 14.0028 275.003 13.5785C269.948 13.0481 265.103 12.8359 259.943 13.1542H258.048C252.677 13.4724 246.99 13.3664 241.935 14.0028C238.67 14.5333 234.773 14.6393 230.561 14.5333C227.086 14.4272 223.61 14.6393 220.346 15.0637C218.555 15.2758 216.66 15.5941 214.764 15.7002C212.447 15.8062 210.552 15.9123 208.761 16.4427C208.129 16.6549 206.866 16.761 206.023 16.6549C202.548 16.5488 199.599 16.8671 196.545 17.1853C193.596 17.3975 191.174 17.7157 189.594 18.2461C186.856 19.2009 182.854 19.3069 178.326 19.0948C175.588 18.8826 173.06 18.5644 171.902 18.034C171.165 17.6096 169.585 17.3975 168.216 17.1853C167.058 16.9731 165.267 16.8671 164.53 16.6549C162.95 16.2306 161.055 16.1245 159.264 15.9123C154.841 15.2758 149.786 15.1697 144.942 15.0637C137.359 14.8515 129.672 14.5333 122.3 15.3819C120.509 15.5941 118.614 15.5941 116.718 15.2758C116.718 14.5333 114.823 14.215 112.611 13.7907C110.505 13.3664 108.504 12.942 106.187 12.7299C102.29 12.0934 99.0256 11.3508 94.6025 10.8204C89.0209 10.1839 83.3341 9.65347 77.7525 9.01698C73.6453 8.59265 69.8541 8.27441 66.1681 7.744C64.7991 7.53183 63.1141 7.42575 61.5344 7.31967C58.7962 7.1075 55.5316 7.1075 53.2147 6.68317C49.7394 6.04668 46.2641 5.9406 42.1569 5.9406C39.6294 5.9406 36.8913 5.62235 34.3637 5.51627C31.0991 4.66762 26.4653 4.56153 22.5687 3.92504C19.8306 3.50071 17.1978 3.50071 14.2491 3.71288C10.3525 3.92504 6.45594 4.03112 2.66469 3.71288C1.71687 3.60679 0.558434 3.60679 -0.389374 3.71288C-5.44438 4.03112 -9.8675 3.81896 -13.5534 2.86422C-13.9747 2.75814 -14.5012 2.75814 -15.1331 2.65205C-19.3456 2.01556 -24.6112 1.90948 -28.7184 1.27299C-31.2459 1.37907 -33.1416 1.27299 -34.3 0.636494C-34.5106 0.530413 -35.8797 0.530411 -36.6169 0.42433C-37.7753 0.42433 -39.355 0.424328 -40.3028 0.318247L-47.8853 0H-68" fill="#FCFBF8"/>
</svg>
