<svg width="1120" height="48" viewBox="0 0 1120 48" fill="none" xmlns="http://www.w3.org/2000/svg">
<path d="M1200 48H1204L1205 47L1211 44L1216 40L1218 39H1221L1231 40L1236 38L1243 35H1251L1254 37H1271L1282 34L1285 35L1289 36L1290 35L1299 36L1303 37L1311 39L1321 44L1328 43L1331 41H1338L1343 40H1345L1350 39L1356 38L1359 35L1368 29L1372 3V0H-28L-27 3L-26 6L-24 9L-16 11L-12 10L-8 7L-6 6L1 3L4 2L7 1L15 3H29L30 2L35 4L39 7L40 8L50 6L53 5L63 6L67 5L68 4L77 5L82 7H84L91 6L94 7H101L112 10L123 11L139 12L154 10H168L182 11H191L206 7L208 8L211 9L216 8H240L259 7H260L266 5L269 7L273 10L281 16L286 18L295 19L299 17H301L310 16L317 15L319 14V13L321 11L328 13L332 14L336 12L341 13L353 16L360 17L371 20L383 21H385L402 22L407 24L414 29L418 31L425 30L428 29L434 28L441 26L451 25H456L463 24L466 23H468L473 24H478L480 25L488 24L492 21L494 22L498 25L504 28H510L516 29L518 28L525 27L529 28L534 29L543 27L552 28H570L592 27L602 25L606 22L609 20H615L621 21L627 24H641L643 26L648 27H656L662 25H666L673 24H675L686 25L698 21L704 19L710 17L714 16L722 20L726 19L730 17L735 16L736 17L740 21H750L756 23L768 19L769 17L772 13L774 10L778 7H781L784 6V4L786 2L788 3L790 6L792 7L794 5L797 4L801 7H804L811 3L818 4L822 5L832 4L839 1L841 0H851L853 1L860 3H863L872 10H874L876 8L880 7L897 6H908L911 4L919 3L926 4H929L932 5L939 2L941 1L943 0L945 1L957 0L964 1L968 2L972 6H974V2H981L985 1H991L995 0L1002 1L1022 5L1034 4L1040 5L1058 4H1060L1063 7L1067 11L1076 13L1078 10L1082 11H1083L1087 12L1092 13L1101 16L1106 19L1109 24L1110 25L1113 26L1117 27L1121 25L1123 26V27L1125 28L1129 26L1132 27L1139 33L1142 34L1146 36L1150 40L1158 42H1160L1169 40L1174 39L1192 44L1200 48Z" fill="#F2F2F2"/>
</svg>
